<svg id="Layer_1" data-name="Layer 1" xmlns="http://www.w3.org/2000/svg" viewBox="0 0 290.06 375.23"><defs><style>.cls-1,.cls-9{fill:#fff;}.cls-2{fill:#ddd;}.cls-3{fill:#fe8d3e;}.cls-4{fill:#11253e;}.cls-5{fill:#ffaf78;}.cls-6{fill:#e86e1c;}.cls-10,.cls-11,.cls-12,.cls-13,.cls-7{fill:none;}.cls-10,.cls-11,.cls-12,.cls-13,.cls-7,.cls-9{stroke:#232323;stroke-linecap:round;stroke-linejoin:round;stroke-width:5px;}.cls-8{fill:#232323;}.cls-10{stroke-dasharray:13.39 13.39;}.cls-11{stroke-dasharray:13.92 13.92;}.cls-12{stroke-dasharray:14.89 14.89;}.cls-13{stroke-dasharray:15.14 15.14;}</style></defs><title>doggo_error</title><path class="cls-1" d="M228.11,95.47l-56.06,1.12s-36.63,12-36.35,13.7,4.19,43.07,4.19,43.07l-1.68,41.83-17.48,18.06L107,242.71,90.89,290.1l-2.82,28.36,5.46,17.35,8.88,12,12,7.85,8.14,4.36,14,3.9,9.79,1.52,1.17-5.49-5.9-3.22-13.7-8.25-6-5.58-7.36-9-6.29-8.29-4-9-1.44-8.28.84-4.1,3,1,4.42,4.84,12.36,10.63L136,328.59l8.83,4.87,8.28,2.82,8.61,2.79,12.61,3.82h10.06l6.58-1.3,3.56-1.68-1.57-6.31,5-.82,4.2.94,4.72,2.87,3,3.79L214,341l2.9-3.87,3.67-6.34,2.66-8.48,3.78,3,1.8,7.63,2.11,4.7,5.45,2.31,5.44-4.56,2.86-1.84,5.13,2.11,14.45,2h13l1.39-6.45-5.12-8.11-2.22-7.06,2.32-31,.55-33,1.09-10.36.93-13.85,1.12-15.52,14.92-.26,7.95-17.74,2.23-24.21-10.18-26.29V132.11l-54.84-29.37Z" transform="translate(-85 -48.18)"/><polyline class="cls-2" points="59.21 184.53 57.05 184.94 34.61 189.18 40.05 175.69 52.71 182.43"/><path class="cls-3" d="M290.78,153.43c-58.62,7.63-47.32-45.56-63.25-45.14-25.51.68,3.84,59.84-74.21,60.22l-.57,31-4.82,27.19L145.05,232l-8.69-2.49L124.48,221,111.12,204l-5.87-10.71-7.83-15V165.45s7.45-36,6.8-36.83,3.27-12.53,3.27-12.53l5-11.71,9.27-16.1L129.11,77l13.46-10.87,12.31-9.46,8.79-1.8,15.45-4.17H197.2l23.65,3.46,10.66,4.19,9.21,2.32,23.18,12,13.29,16.92,10.38,11.3,9.33,13.87,7.32,20.32,5.61,27.41,1.24,22.18-5.51,24.1L299,221.43l-6.48,7.48-4.1,3.33-5.89.47-4.64-5.84-1.68-8,1.63-16.45,5.18-5.63,5.73-11.62L291.26,160S292.42,153.21,290.78,153.43Z" transform="translate(-85 -48.18)"/><path class="cls-4" d="M113.6,207.11l-12.74,16.68-6.43,19.9-4.76,25.69,6.63,21.95,9.18,13.38s-3.36-16.45,6.85-46.52S127.86,224,127.86,224L113.6,207.11" transform="translate(-85 -48.18)"/><path class="cls-5" d="M166.07,54.06c2.34-.67,106.64,9.91,132.37,70.45l-2.1-12.09L276.21,83.75l-16.78-12L235.35,58.48l-31.11-7.8H179.12l-8.48,1.12" transform="translate(-85 -48.18)"/><path class="cls-6" d="M107.23,116.78s1,83.86,42.43,100.14l-3.73,15.17-16.52-6.84-19.23-22.87-8.26-16.33-4.49-19.59,2.3-22.8,4.68-17.19,2.82-9.69h0" transform="translate(-85 -48.18)"/><path class="cls-6" d="M288.93,183.8s1.59,37.38,7.27,42.51l-5.5,6.4-5.59,2.74-4.19-5.32-1.59-4.84-1.68-4L276.7,214l2.06-11.13,3.62-5.09,2.45-4.65" transform="translate(-85 -48.18)"/><polyline class="cls-2" points="17.78 254.45 17.56 266.22 12.43 292.93 1.6 275.63 2.5 264.13 3.14 249.59 4.68 239.66 7.62 236.07 12.43 245.59 15.3 253.22"/><path class="cls-2" d="M118.27,318.78s49.2,25.74,74,18.56v5.87L187,345.26l-11.65-2.05-12.83-2.1-9.66-3.06c-.41-.13-18.06-7.15-18.34-7.24s-9.88-5.72-9.88-5.72" transform="translate(-85 -48.18)"/><path class="cls-2" d="M189.07,331.41l12.74-2.18s9.94,8.85,15.06,3.35,4.22-8.13,4.22-8.13l7.53,6.36s7.74,7.37,14.17.65,22,7.42,32.16-.56l-.19,8-29.92-4.29-3.45,5.13s-3.17.2-3.44.32-8.68-5.54-8.68-5.54l-3.14-4.46-2.92-2.34-3.35,8.66L215,340.93l-2.36,3-5.87-6.53-7.28-2.33-6.26,1.24-4.2-4.93" transform="translate(-85 -48.18)"/><path class="cls-7" d="M282.08,123.12s23.45,48.94-3.21,79.14c0,0-3.92,21-4.76,54.81s-1.4,36.92-4.75,59.57c0,0,6.8,9.88,8,18.74s-34.58,0-34.58,0" transform="translate(-85 -48.18)"/><path class="cls-7" d="M250.34,307s-4.29,31.88-13.7,33.47-13.43-20.7-13.43-20.7" transform="translate(-85 -48.18)"/><path class="cls-7" d="M224.7,304.71s-4.19,32.63-11.28,37.94-17-28.8-17-28.8" transform="translate(-85 -48.18)"/><path class="cls-7" d="M203.64,335.1a46.38,46.38,0,0,1-9.73,0" transform="translate(-85 -48.18)"/><path class="cls-7" d="M188.53,309s-.74,15.66-3.35,19.2c0,0,12.4,8.48,7.64,14.45s-59.38-1.21-88.46-37.94-2.24-85.3,8.2-97.6" transform="translate(-85 -48.18)"/><path class="cls-7" d="M150.5,120.32s9.37,92.43-5.45,111.72c0,0-25,.49-45.91-52.71-7.9-20.14,9.69-129.48,91.35-128.65s113.62,61.78,120.26,118.58c.88,7.55,1.86,49.59-25.92,65.25,0,0-6.4-3.43-8.42-13.92" transform="translate(-85 -48.18)"/><path class="cls-7" d="M227.76,165.45s-2.18-21.84,6.94-25.19c0,0,9,2.46,6.2,24.38" transform="translate(-85 -48.18)"/><ellipse class="cls-8" cx="147.54" cy="76.34" rx="6.25" ry="4.1"/><ellipse class="cls-9" cx="103.82" cy="78.29" rx="24.42" ry="26.38"/><ellipse class="cls-9" cx="262.95" cy="123.12" rx="19.2" ry="23.53" transform="translate(-99.13 -11.82) rotate(-7.7)"/><ellipse class="cls-8" cx="113.88" cy="73.45" rx="10.07" ry="17.25"/><ellipse class="cls-8" cx="256.78" cy="118.55" rx="9.12" ry="17.25" transform="translate(-91.84 -32.07) rotate(-3.55)"/><path class="cls-7" d="M101.3,300.5c-2.12,25.15,21.14,48.3,33.07,54.08s17.34,13.05,17.34,13.05c-91.35-6.89-58.44-85.09-58.44-85.09" transform="translate(-85 -48.18)"/><path class="cls-7" d="M316.08,355.36l5.85-1.34a51.55,51.55,0,0,1,1.33-5.84" transform="translate(-85 -48.18)"/><path class="cls-10" d="M328.38,335.84c4.32-7.43,11.32-14.37,22.45-14.63,19.06-.44,21.64,21.38,12.5,34" transform="translate(-85 -48.18)"/><path class="cls-7" d="M358.67,360a19.76,19.76,0,0,1-5.27,2.82l.5,1.24a22.65,22.65,0,0,1,5.92.91" transform="translate(-85 -48.18)"/><path class="cls-11" d="M370.69,373.1c4.35,7.51,1.51,17.4-12.76,20.46-9,1.94-15.28.89-19.54-1.14" transform="translate(-85 -48.18)"/><path class="cls-7" d="M332.85,388.3a14.62,14.62,0,0,1-3.09-5.1l-5.85,1.33" transform="translate(-85 -48.18)"/><line class="cls-12" x1="224.4" y1="339.66" x2="202.62" y2="344.63"/><path class="cls-7" d="M280.36,394.46l-5.85,1.33a14.53,14.53,0,0,1,0,6" transform="translate(-85 -48.18)"/><path class="cls-11" d="M267.27,413.28a37.77,37.77,0,0,1-11.38,6c-17.28,6.07-24.81-6.43-20.27-17.57" transform="translate(-85 -48.18)"/><path class="cls-7" d="M239.34,395.89a23.37,23.37,0,0,1,4.58-3.86l-.22-1.33a19.43,19.43,0,0,1-6,.35" transform="translate(-85 -48.18)"/><path class="cls-10" d="M225.49,386.06c-10.69-8.12-15.43-24-1.29-32.16,12.24-7.11,24.42-1.52,32.44,4.37" transform="translate(-85 -48.18)"/><path class="cls-7" d="M261.79,362.52a50.64,50.64,0,0,1,4.18,4.29l5.85-1.33" transform="translate(-85 -48.18)"/><line class="cls-13" x1="201.58" y1="313.93" x2="223.71" y2="308.87"/><path class="cls-8" d="M278.79,383.66l-5.68,1.25a.91.91,0,0,1-1.09-.69l-.28-1.28a.94.94,0,0,1,.07-.6l4.83-9.75a.91.91,0,0,1,.62-.49l3.08-.68a.9.9,0,0,1,1.08.7l1.54,7a.9.9,0,0,0,1.08.69h0a.92.92,0,0,1,1.09.7l.18.82a.91.91,0,0,1-.69,1.09h0a.9.9,0,0,0-.7,1.08l.14.61a.92.92,0,0,1-.7,1.08l-2.26.5A.91.91,0,0,1,280,385l-.13-.61A.91.91,0,0,0,278.79,383.66Zm-1.27-2.45.7-.15a.91.91,0,0,0,.69-1.09l-.44-2c-.17-.77-.31-1.79-.32-1.83s-.42,1.17-.69,1.76l-1,2.05A.91.91,0,0,0,277.52,381.21Z" transform="translate(-85 -48.18)"/><path class="cls-8" d="M291.19,376.55l-.13-.61c-1-4.62,2-7.49,5.82-8.33s7.76.49,8.78,5.11l.14.61c1,4.64-2,7.51-5.82,8.35S292.21,381.19,291.19,376.55Zm10.12-2.28-.11-.52c-.61-2.77-2.08-3.67-3.7-3.32s-2.57,1.8-2,4.57l.12.52c.61,2.77,2.08,3.69,3.7,3.33S301.92,377,301.31,374.27Z" transform="translate(-85 -48.18)"/><path class="cls-8" d="M319.85,374.62l-5.69,1.25a.9.9,0,0,1-1.08-.69l-.29-1.29a.9.9,0,0,1,.08-.6l4.82-9.75a.94.94,0,0,1,.62-.48l3.08-.68a.9.9,0,0,1,1.08.69l1.54,7a.9.9,0,0,0,1.08.69h0a.91.91,0,0,1,1.09.69l.18.83a.9.9,0,0,1-.69,1.08h0a.93.93,0,0,0-.7,1.09l.14.6a.91.91,0,0,1-.7,1.09l-2.26.5a.91.91,0,0,1-1.08-.7l-.14-.6A.9.9,0,0,0,319.85,374.62Zm-1.28-2.45.7-.16a.92.92,0,0,0,.7-1.08l-.45-2c-.17-.77-.31-1.8-.32-1.84s-.42,1.18-.68,1.76l-1,2.06A.91.91,0,0,0,318.57,372.17Z" transform="translate(-85 -48.18)"/><path class="cls-7" d="M116.53,339.79s-15.85-6.17-7.76,4.73c0,0-10.88-7.58-6.48,5.34" transform="translate(-85 -48.18)"/><path class="cls-7" d="M187.18,93.09S207,93.59,209,70.46" transform="translate(-85 -48.18)"/><path class="cls-7" d="M199.46,70.72s1,6.65-4.16,10.89" transform="translate(-85 -48.18)"/><path class="cls-7" d="M261.78,92.06s-19.85.81-21.75-18.34" transform="translate(-85 -48.18)"/><path class="cls-7" d="M249.56,73.75a9.21,9.21,0,0,0,4.13,8.94" transform="translate(-85 -48.18)"/></svg>